<svg id="Grupo_862" data-name="Grupo 862" xmlns="http://www.w3.org/2000/svg" width="48.625" height="54.764" viewBox="0 0 48.625 54.764">
  <path id="Trazado_132" data-name="Trazado 132" d="M2162.233,1203.885c-.027-3.643-2.065-5.528-5.741-5.7a67.156,67.156,0,0,0-6.853,0c-2.418.134-4.127-.35-5.748-2.582-2.838-3.911-8.766-4.106-11.549-.283-1.912,2.628-4.006,3.033-6.768,2.859-1.771-.112-3.555-.054-5.331-.013-4.578.106-6.486,1.962-6.531,6.508-.058,5.963-.014,11.926-.013,17.889,0,6.217-.068,12.435.027,18.651.06,3.916,2.029,6.022,5.8,6.048q18.474.125,36.949,0c3.6-.023,5.729-2.1,5.755-5.695Q2162.37,1222.727,2162.233,1203.885Zm-24.286-6.692a3.047,3.047,0,1,1-3.046,3.047A3.046,3.046,0,0,1,2137.947,1197.193Zm-5.835,38.37-10.323-10.386,4.3-2.985,6.2,5.872c5.884-5.859,11.74-11.692,17.72-17.65l4.184,4.139Z" transform="translate(-2113.677 -1192.556)" fill="#fff"/>
</svg>
