<?xml version="1.0" encoding="UTF-8"?>
<svg xmlns="http://www.w3.org/2000/svg" version="1.1" viewBox="0 0 312 264.6">
  <defs>
    <style>
      .cls-1 {
        fill: #193965;
      }

      .cls-1, .cls-2, .cls-3, .cls-4, .cls-5, .cls-6, .cls-7, .cls-8, .cls-9, .cls-10, .cls-11, .cls-12, .cls-13, .cls-14, .cls-15, .cls-16, .cls-17, .cls-18, .cls-19, .cls-20, .cls-21, .cls-22, .cls-23, .cls-24, .cls-25, .cls-26, .cls-27, .cls-28, .cls-29 {
        stroke-width: 0px;
      }

      .cls-2 {
        fill: gray;
      }

      .cls-3 {
        fill: #f3b5a3;
      }

      .cls-4 {
        fill: #7992b7;
      }

      .cls-5 {
        opacity: .7;
      }

      .cls-5, .cls-7, .cls-26 {
        fill: #fff;
      }

      .cls-6 {
        fill: #eec1b5;
      }

      .cls-7, .cls-30 {
        opacity: .8;
      }

      .cls-8 {
        fill: #1f3a6c;
      }

      .cls-9 {
        fill: #55ac32;
      }

      .cls-10 {
        fill: #d7e5f5;
      }

      .cls-11 {
        fill: #202d53;
      }

      .cls-12 {
        fill: #1a2e35;
      }

      .cls-13 {
        fill: #f3b4a2;
      }

      .cls-14 {
        opacity: 0;
      }

      .cls-14, .cls-28 {
        fill: #000;
      }

      .cls-15 {
        fill: #00dfbf;
      }

      .cls-16, .cls-20 {
        fill: #4f94d3;
      }

      .cls-16, .cls-31 {
        opacity: .3;
      }

      .cls-17, .cls-32 {
        fill: #82afdf;
      }

      .cls-18 {
        fill: #2770b4;
      }

      .cls-32 {
        font-family: Arial-Black, 'Arial Black';
        font-size: 146.9px;
        font-weight: 800;
        opacity: .4;
      }

      .cls-19 {
        fill: #b4b8b8;
      }

      .cls-21 {
        fill: #d9101b;
      }

      .cls-33 {
        opacity: .4;
      }

      .cls-22 {
        fill: #af494e;
      }

      .cls-34 {
        isolation: isolate;
      }

      .cls-23 {
        fill: #ef898f;
      }

      .cls-24 {
        fill: #183c6c;
      }

      .cls-25 {
        fill: #e4ecf4;
      }

      .cls-31, .cls-35 {
        mix-blend-mode: multiply;
      }

      .cls-27 {
        fill: #6aafe1;
      }

      .cls-35 {
        opacity: .5;
      }

      .cls-28 {
        opacity: .3;
      }

      .cls-29 {
        fill: #f6b29b;
      }
    </style>
  </defs>
  <g class="cls-34">
    <g id="Grupo_13499" data-name="Grupo 13499">
      <g>
        <text class="cls-32" transform="translate(9 192.2)"><tspan x="0" y="0">408</tspan></text>
        <g>
          <ellipse id="_Path_" data-name="&amp;lt;Path&amp;gt;" class="cls-25" cx="157.1" cy="209.9" rx="110.2" ry="9.7"/>
          <g>
            <path class="cls-18" d="M61.8,213.3c-1.4,0-3.2-.8-4.2-2.2,0-.1,0-.3,0-.4.1,0,.3,0,.4,0,1.1,1.5,3.4,2.3,4.4,1.9.1,0,.2-.1.3-.2-.9-.4-1.8-1.3-2-2.5-.1-.7-.2-1.7.4-1.8.8-.2,1.9,1.8,2.3,3.3,0,.3,0,.5,0,.8.4,0,.7.1,1,0,.2,0,.6-.1.8-.4-.7-.5-1.2-1.3-1.3-2.4-.2-1.6,0-1.8.1-2,.1,0,.3-.1.4,0,.6.3,1.3,2.5,1.5,3.7,0,.1,0,.3,0,.4.2,0,.5.1.8.1.5,0,1-.1,1.4-.4,0,0-.2-.1-.2-.2-.6-.5-.8-1.3-.7-2.5,0-.9.3-1.4.6-1.5.1,0,.4-.1.7.1.6.5,1.2,2,1,3.2,0,.2-.1.5-.3.7,1,.2,2.5-.1,3.8-.4.2,0,.3,0,.3.2s0,.3-.2.3c-1.5.4-3.2.7-4.4.4-.5.4-1.3.7-2,.7-.3,0-.6,0-.9-.2-.2.4-.6.6-1.2.7-.4,0-.8,0-1.3-.1-.1.2-.3.4-.6.5-.3.1-.6.2-1,.2ZM61.3,208.6c0,0,0,.4,0,1.2.2,1,.9,1.7,1.6,2.1,0-.1,0-.3,0-.4-.4-1.6-1.3-2.7-1.6-2.9ZM64.5,208.1c0,.2,0,.6.1,1.2.1.8.4,1.4.9,1.8-.1-1.1-.6-2.5-1-3ZM68.1,207.6h0s-.2.1-.3,1.1c0,1,0,1.6.5,2,0,0,.2.2.3.2.2-.2.3-.4.3-.6.2-.8-.2-2-.7-2.5-.1-.1-.2-.2-.2-.2Z"/>
            <g>
              <polygon class="cls-12" points="145 217.6 146.6 214.9 145 212.2 143.4 212.2 144.3 214.9 143.4 217.6 145 217.6"/>
              <path class="cls-12" d="M143.5,216.3c-.8,0-1.4-.6-1.4-1.4s.6-1.4,1.4-1.4l-2.6-.5-.7,2.1,1.2,1.8,2.1-.6Z"/>
              <path class="cls-17" d="M143.7,212.2h-3.1l-1.5,2.7,1.5,2.7h3.1l1.5-2.7-1.5-2.7ZM142.2,216.3c-.8,0-1.4-.6-1.4-1.4s.6-1.4,1.4-1.4,1.4.6,1.4,1.4-.6,1.4-1.4,1.4Z"/>
            </g>
            <g>
              <polygon class="cls-17" points="252.5 212.1 251.4 210.1 252.5 208.1 253.7 208.1 253.1 210.1 253.7 212.1 252.5 212.1"/>
              <path class="cls-18" d="M253.7,211.1c.6,0,1-.5,1-1s-.5-1-1-1l1.9-.4.5,1.6-.9,1.3-1.6-.4Z"/>
              <path class="cls-12" d="M253.5,208.1h2.3l1.1,2-1.1,2h-2.3l-1.1-2,1.1-2ZM254.6,211.1c.6,0,1-.5,1-1s-.5-1-1-1-1,.5-1,1,.5,1,1,1Z"/>
            </g>
            <g>
              <path class="cls-12" d="M209.9,214.7h2.6c.7,0,1.2-.5,1.2-1.2h0c0-.7-.5-1.2-1.2-1.2h-2.6c-.7,0-1.2.5-1.2,1.2h0c0,.7.5,1.2,1.2,1.2Z"/>
              <path class="cls-17" d="M205.8,212.4c.6-1.3,2.2-2,3.4-1.4,1.3.6,1.8,2.2,1.1,3.5s-2.2,2-3.4,1.4c-1.3-.6-1.8-2.2-1.1-3.5Z"/>
              <rect class="cls-12" x="207.7" y="210.6" width=".8" height="5.7" transform="translate(305.3 495.3) rotate(-154.8)"/>
            </g>
          </g>
        </g>
        <g>
          <g>
            <path class="cls-13" d="M138.2,116.7s-6.4,4.9-15.5,3.6l-3.3.8s-6.1-4-4.8-4.9c3.6-2.3,4.7.3,5,.3,3.8-.6,7.8-2.2,10.3-2.6,4-.6,3.9-1.9,3.9-1.9l1.9-3.3,2.4,8Z"/>
            <path class="cls-3" d="M183.3,116.2c1.5-.6,1-2,.3-3.5-3-5.4-8.2-12.3-8.2-12.3l-5.7,4.7s6.4,8.2,6.9,8.8,2.4,2.5,3.3,2.6,3-.1,3.5-.3Z"/>
            <g>
              <path class="cls-27" d="M167.6,207.1s0,1.7-.2,3.1c-.2,1.5-.4,4.1.2,5.4.4.9,1,2.8,5.4,2.8,4.9,0,5-3.3,5.1-4,.1-1.5-.8-2.8-.8-2.8l-1.4-4.6h-8.2Z"/>
              <path class="cls-27" d="M131.7,204.8c-.6,0-.3,1.5.5,2.1.9.6,2.7.5,3.7.4,2.5-.3,4-.5,5.8-.5,1.8,0,4.7-.5,5.9-.7,2.3-.4,2.6-.9,2.5-1.1,0-.4,0-2.3-1.7-2-1.2.2-16.6,1.9-16.6,1.9,0,0-.2,0-.2,0"/>
              <path class="cls-1" d="M170.9,200.2c5-.3,4.6,4.2,6.2,9.4,1,3.1,1.3,4.2-.3,6-1.5,1.8-7.1,2.3-8.5-.9-.9-1.9-.6-2.9-.6-5.7,0-2.7-1.3-8.6,3.3-8.8"/>
              <path class="cls-26" d="M174.3,201.3c-.6-2.7-.4-4.4-.4-4.4-.3-3.6.2-11.7.3-14.7l-9.8-.6c.3,1.8,2.3,10.8,3.5,17.3,0,.5-.2,3.7-.1,3.8.4,3,3.7,3.1,4.9,2.7,2.4-.6,2.1-2.4,1.7-4.2"/>
              <path class="cls-1" d="M141.1,197.9c-2.3,2.3-9,4.3-9.4,6.1,0,0-1.2,2.8,3.7,2.3.5,0,11.5-.6,13.9-1.8,1.2-.6-.1-3.9,0-5.8,0-.1,0-.5,0-.6,0,0-.2-.4-.4-.4-1.8,0-3.4,1.5-5.2,1.7-1,0-2.5-.3-2.5-1.4"/>
              <path class="cls-26" d="M141.6,180.7c0,5.1,0,5.4.7,11.9.2,1.7-.2,2.9-.5,4.2,0,.4-.3.7-.7,1.1,0,1.1,1.5,1.4,2.5,1.4,1.9-.2,3.7-.9,5.5-1.3.2-5.6.5-13.3.5-14.6l-8.1-2.6Z"/>
              <path class="cls-27" d="M166.8,122.3c.2,1.1,5.2,10.1,5.7,16.6,1.2,15.7,2.9,28.7,2.8,37.1-.2,19.6.5,26,.5,26,0,0-5.9,2.3-9.9.8-1.6-6-4.2-25.9-5.8-32.8-1.7-7.3-2.9-16-2.9-16l-3.8,14.7-3.5,28.8s-3.8,1.5-9.9-.6c0,0-.9-24-1-28.7,0-4.6.4-28.4,3.1-40.6.1-.6.5-4.4.5-4.4,3.4,2.7,19.7,2.1,24.1-.9"/>
              <g class="cls-31">
                <path class="cls-27" d="M157.3,154l-1.3-8s-2.8,0-7.9-3.7c0,0,2.2,3.8,6.3,5.6l1.7,6.8-2.6,14,3.8-14.7Z"/>
              </g>
            </g>
            <path class="cls-11" d="M167.7,69.1c.1.2,5.5,4.4,3,20.1-3.7,23.2-10.9,21.7-10.9,21.7,0,0-21.1-17.6-13.5-38.7l13.4-5.8,8,2.7Z"/>
            <path class="cls-3" d="M153.2,88.1s.2,5.2-.6,5.7c-.8.5-1.7.5-1.7.5,0,0-1.8,4,2.4,5,4.1,1,7.1-3.5,8.2-5.2,0,0-1.6-.1-1.9-1.1-.4-1.3.1-4.9.1-4.9h-6.4Z"/>
            <g class="cls-35">
              <path class="cls-3" d="M159.9,88l-6.9.2s0,.3.3,1.4c.9,2.4,4.3,3,6.1,0l.5-1.6Z"/>
            </g>
            <path class="cls-3" d="M165.5,80.8c-.5,5.6-5.1,9.4-9.5,9.4-3.9,0-8.3-5.2-7.8-10.8.6-7.1,4.8-11.1,9.6-10.7,4.8.4,8.3,4.4,7.7,12.1"/>
            <path class="cls-3" d="M148.6,78.7s-.6-1-1.7-.7c-.8.2-1,2.6-.1,4,.9,1.4,2.2,1.2,2.2,1.2l-.4-4.5Z"/>
            <path class="cls-3" d="M165.2,78.5s.5-1,1.7-.8c.8.2,1.1,2.6.1,4-.9,1.4-2.2,1.3-2.2,1.3l.4-4.5Z"/>
            <path class="cls-11" d="M148.9,77.9s1.1-4.4,5-4.4c3.9,0,5.8-4.3,5.8-4.3,0,0-.2,3.9,2.9,5.8,3.1,1.8,2.5,7.1,2.5,7.1,0,0,1.1-1.1.8-3.8,0,0,1.1.8,2.1,2.1.6.8,2.6,3.3,2.6,3.7,0,0,.6-4.7-.3-9.2-1.1-5.3-4.3-10.8-10.2-10.2,0,0-8-2.8-12.6,4.5s-2.2,14.4-2.2,14.4c0,0,1.2-4,2.1-4.7,0,0,0,1.8,1,2.9,0,0,0-1.2.4-3.9"/>
            <path class="cls-8" d="M159.1,78.9c0,.5.2,1,.6,1,.3,0,.7-.4.7-.9,0-.5-.2-1-.6-1-.3,0-.7.4-.7.9"/>
            <path class="cls-8" d="M153.1,78.5c0,.5.2,1,.6,1,.3,0,.7-.4.7-.9,0-.5-.2-1-.6-1-.3,0-.7.4-.7.9"/>
            <path class="cls-8" d="M162.5,77.1c0-.3-.2-.6-.4-.9-.2-.3-.5-.5-.8-.6-.3-.1-.7-.1-1,0-.2,0-.3.1-.4.2-.1,0-.3.2-.4.3.2,0,.3,0,.4,0h.2s.1,0,.1,0h.1c.3,0,.5,0,.8.1.2,0,.5.2.7.4.2.2.4.4.6.6"/>
            <path class="cls-8" d="M151.2,76.3c.2-.2.5-.4.7-.5.2-.1.5-.2.7-.3.2,0,.5,0,.8,0h.1s.1,0,.1,0h.2c.1,0,.3.1.4.2,0-.1-.2-.2-.3-.3-.1,0-.3-.2-.4-.3-.3-.1-.6-.2-1-.1-.3,0-.6.2-.9.5-.2.2-.4.5-.5.8"/>
            <g class="cls-35">
              <path class="cls-3" d="M157.1,82.9s-.6,0-1.2,0c-.4,0-.6-.4-.6-.8l.6-3.3-1.2,3.4c0,.3,0,.6.3.8.4.2,1.1.4,2.1-.2"/>
            </g>
            <path class="cls-22" d="M156.1,87.7c0,0-.2,0-.3,0-1.7-.3-1.3-3.4.3-2.8s1.5,2.9,0,2.9Z"/>
            <path class="cls-11" d="M154.1,140c-.3,0-.5-.2-.5-.5s.2-.5.5-.5.5.2.5.5-.2.5-.5.5M154.1,139.1c-.2,0-.4.2-.4.4s.2.4.4.4.4-.2.4-.4-.2-.4-.4-.4"/>
            <g>
              <path class="cls-11" d="M168.2,93.9s2.6-.1,2.7,4c0,4.1-.7,8.5-1.5,8.6-.8,0-1.6-4.5-1.6-6.6,0-2.1.5-6,.5-6"/>
              <path class="cls-24" d="M171.4,102.3l-1-.7s-.4,4.8-1.6,5.2c.6,1.1,2,3.8,2.8,4.8-.2-2.2-.1-8.2-.2-9.3Z"/>
              <path class="cls-3" d="M140.7,98.7s-7.5,13.1-7.5,15.4,4.7,2.8,4.9,2.6c2.9-2.5,8.1-14,8.1-14l-5.6-4Z"/>
              <path class="cls-10" d="M150.2,93.7c1.2.5.5,2.8,5.8,2.6,5.5-.2,6.2-4,11.2-3.2,0,0,5.3-.1,12.5,11.1l-7.7,6.6-3.5-5.1s-.8,1.5-1.3,7.3c-.5,5.8-.8,9.7,2,15.4,3.2,6.5,3.3,9.4,3.3,9.4,0,0-16,7.6-32.2-.1,0,0-.2-4.3,2.5-10.9,2.7-6.6,4.3-11.2,2.8-13.6-1.4-2.4-3.2-5.4,0-10.1l-2.4,5.6-6.1-4.1s3.4-6.5,4.3-7.9c1-1.5,2.4-3.1,3.9-3.2,2.9-.3,4.9.2,4.9.2"/>
              <path class="cls-9" d="M153.2,113.5s4.8,2.7,8.2.5c3.4-2.2,4-5.6,4-5.6,0,0-1,7.1-5.9,7.4-4.9.3-6.3-2.3-6.3-2.3"/>
              <path class="cls-24" d="M170,108.4c0,.2-1.8-3.2-1.9-3.8-1.3-5.2.9-8.6,1.8-10.1,0-.2.3-.2.5-.1l.9.5s-.4-1.1-.7-1.3c-.2,0-2.8-.8-3.8-.9-2.6-.1-4.8.4-5.2.4-.5,0-1-.7-1.1-.9,0,0-.2-.1-.3,0-.4.4-2.1,1.3-3,1.7-.4.2-.5.4-.5.6,0,0-.2.9-.3,1,0,0-.6,0-.6,0v-1c-.2-.3-.2-.5-.5-.5-1.5-.4-2.4-1.1-2.8-1.5,0,0-.2,0-.3,0-.2.2-.6,1.2-1.3,1-1-.2-3.2-.3-4.3-.3-.4,0-.7.2-.9.5-.5,1-1.6,3.7-2.8,8.3-2,7.7-.3,8.1-1.4,17.9-.4,3.7-1.5,15.2-1.8,18s.2.7.5.8c1.7.6,6.9,2.4,14.5,2.8,7.5.4,14.4-.9,17.2-1.5.6-.1,1-.7,1-1.3-.4-4.3-.5-17.9-1.2-27-.8-1-1.1-2.1-1.6-3.2Z"/>
              <path class="cls-11" d="M161,93.5s0,0,0,.1c.1-.1.2-.2.2-.2,0,0,0,0-.2.2-.1.1-.3.3-.6.5-.1,0-.3.2-.5.3-.2.1-.3.2-.5.3-.4.2-.8.4-1.3.5-.5.1-1,.2-1.4.2-.1,0-.2,0-.3,0,0,0-.1,0-.2,0,0,0,0,0,0,0,0,0,0,0,0,0,0,0-.2,0-.3,0,0,0-.2,0-.3,0,0,0-.2,0-.2,0,0,0-.1,0-.2,0h0s0,0,0,0c0,0,0,0,0,0,0,0,0,0,0,0,0,0,0,0,0,0,0,0,0,0,0,0,0,0,0,0,0,0,0,0,0,0,0,0,0,0-.1,0-.2.1,0,0-.1.1-.1.2h0s0,0,0,0h0s0,0,0,0c0,0,0,0,0,.1,0,0,0,.1,0,.2-.3,1.2-.6,2.5-.9,3.9-.3,1.4-.5,2.9-.7,4.5,0,.2,0,.4,0,.6,0,.2,0,.4,0,.6,0,.2,0,.4,0,.6,0,.1,0,.2,0,.3,0,.1,0,.2,0,.3,0,.2,0,.4,0,.6,0,.2,0,.4,0,.6,0,.4,0,.9,0,1.3,0,.9,0,1.8.1,2.7,0,.9.2,1.8.4,2.7.1.9.3,1.8.3,2.7,0,.4,0,.9,0,1.3,0,.1,0,.2,0,.3,0,.1,0,.2,0,.3,0,.2,0,.4,0,.7,0,1.7-.2,3.4-.3,5-.2,3.2-.4,6.1-.5,8.5,0,.6,0,1.2-.1,1.7,0,.5,0,1.1,0,1.5,0,1-.1,1.8-.2,2.5,0,.3,0,.6,0,.9,0,.1,0,.3,0,.4,0,.1.1.2.2.2,0,0,.1.1.2.1,0,0,.1,0,.2,0,0,0,0,0,0,0,0,0,0,0,0,0,0,0,0,0,0,0,0,0,0,0,0,0,0,0,0,0,0,0,0,0,0,0,0,0,0,0,0,0-.2,0,0,0-.1,0-.2-.1,0,0-.1-.1-.2-.2s0-.2,0-.4c0-.3,0-.6,0-.9,0-.7.1-1.5.2-2.5,0-1,.1-2.1.2-3.3.2-2.4.4-5.3.6-8.5.1-1.6.2-3.3.3-5,0-.2,0-.4,0-.7,0-.1,0-.2,0-.3,0-.1,0-.2,0-.3,0-.4,0-.9,0-1.4,0-.9-.2-1.8-.3-2.7-.1-.9-.3-1.8-.4-2.7,0-.9-.1-1.8-.1-2.7,0-.4,0-.9,0-1.3,0-.2,0-.4,0-.6,0-.2,0-.4,0-.6,0-.1,0-.2,0-.3,0-.1,0-.2,0-.3,0-.2,0-.4,0-.6,0-.2,0-.4,0-.6,0-.2,0-.4,0-.6.2-1.6.4-3.1.7-4.5.3-1.4.5-2.7.8-3.9,0,0,0-.1,0-.2,0,0,0,0,0-.1h0c0,0,0,0,0,0h0s0,0,0,0c0-.1.2-.2.3-.3,0,0,0,0,0,0h0s0,0,0,0h0c0,0,.1,0,.2,0,0,0,0,0,.1,0,0,0,0,0,.1,0,0,0,0,0,.1,0,0,0,0,0,.1,0,0,0,.2,0,.3,0,0,0,0,0,0,0,0,0,0,0,0,0,0,0,.1,0,.2,0,.1,0,.2,0,.3,0,.5,0,1,0,1.5-.1.5-.1,1-.3,1.4-.5.2-.1.4-.2.5-.3.2-.1.3-.2.4-.3.2-.2.4-.4.5-.5,0,0,.1-.1.2-.2,0,0,0-.1,0-.1,0,0,0,0,0,.1"/>
              <path class="cls-11" d="M151.9,94c.2.2.4.5.8.7.3.2.7.3,1,.4.1,0,.2,0,.3,0,0,0,.1,0,.1,0,0,0,0,0-.1,0,0,0-.2,0-.3-.1-.2-.1-.6-.3-.9-.5-.3-.2-.6-.4-.8-.6-.2-.2-.3-.3-.3-.3,0,0,0,0,0,.1,0,0,0,.2.2.3"/>
              <path class="cls-11" d="M156,98.5c-.1.5-.3,1.2-.5,2-.2.8-.3,1.7-.4,2.6-.1,1-.2,2.1-.3,3.2,0,1.2-.1,2.4,0,3.7,0,1.3.1,2.7.3,4.1,0,.7.2,1.4.3,2.1,0,.7.2,1.5.2,2.2h0c0,.1,0,.3,0,.3,0,0,0,.2,0,.3,0,0,0,.2,0,.3,0,0,0,.2,0,.3,0,.2,0,.4,0,.6,0,.2,0,.4,0,.6,0,.2,0,.4,0,.5,0,.2,0,.4,0,.5,0,.4,0,.7,0,1.1,0,.4,0,.7,0,1.1,0,.3,0,.7,0,1,0,.7,0,1.4,0,2-.1,2.6-.3,5-.4,6.9-.2,3.9-.4,6.4-.4,6.4,0,0,.2-2.4.5-6.4.1-2,.3-4.3.5-6.9,0-.7,0-1.3.1-2s0-.7,0-1c0-.3,0-.7,0-1.1,0-.4,0-.7,0-1.1,0-.2,0-.4,0-.5,0-.2,0-.4,0-.5,0-.2,0-.4,0-.6,0-.2,0-.4,0-.6,0,0,0-.2,0-.3,0,0,0-.2,0-.3,0,0,0-.2,0-.3h0c0-.1,0-.3,0-.3,0-.8-.1-1.5-.2-2.2,0-.7-.2-1.4-.3-2.1-.2-1.4-.3-2.8-.3-4.1,0-1.3,0-2.5,0-3.7,0-1.2.1-2.2.3-3.2.1-1,.2-1.9.4-2.6.1-.8.3-1.4.4-2,.1-.5.3-.9.4-1.2,0-.3.2-.4.2-.4,0,0,0,.1-.2.4,0,.3-.2.7-.4,1.2"/>
              <path class="cls-11" d="M142.9,112.8c1.9.6,5.4,1.1,7,1.1.4,0,.7-.4.7-.8-.1-1.2-.2-2.8-.2-5,0-1.1.1-2,.2-2.7-4.6-.3-6.6-1-7.4-1.4-.1.6-.3,1.3-.5,2-.5,2.4-.2,5.3,0,6.4,0,.2.1.3.3.3"/>
              <path class="cls-11" d="M142.3,128.3c-.4,2.4-.5,4.6-.5,5.6,0,.3.2.6.5.8,1.9.6,5.4.7,6.9.7.4,0,.8-.3.8-.8,0-.6,0-1.6.1-3.4,0-1.7.2-3.2.3-4.3-3.6,0-6.3-.7-7.7-1.2-.1.7-.2,1.6-.4,2.6"/>
              <path class="cls-11" d="M155.9,105.8c0,.5,0,1,0,1.6,0,3.1.1,5.5.3,6.7,0,.4.4.7.8.8,2.3.3,7,.2,9,0,.6,0,.9-.6.9-1.2-.2-1.3-.5-3.6-.6-5.9,0-.8,0-1.5,0-2.1-1.3.3-2.8.5-4.4.5s-4.2,0-5.9-.2"/>
              <path class="cls-11" d="M166.8,126.9c-1.2.3-2.6.5-4.1.5-2,0-4.1-.1-5.7-.3,0,.7,0,1.6-.1,2.7-.1,3.5,0,4.9.2,5.5,0,.2.2.4.4.4,2.2.5,7-.1,9-.4.4,0,.7-.5.6-.9-.1-.6-.2-1.7-.3-3.7,0-1.5,0-2.8,0-3.9"/>
              <path class="cls-11" d="M143.7,101.8s-.2.6-.6,1.8c.3.1.7.3,1.5.5,1.1.3,2.9.7,5.9.9.2-1.5.5-2.2.5-2.2-3.4-.3-7.4-1-7.4-1M146.5,104c-.2,0-.4-.1-.4-.3s.1-.4.3-.4.4.1.4.3-.1.4-.3.4"/>
              <path class="cls-11" d="M156.2,103s-.2,1-.3,2.5c2.8.3,7.2.5,10.2-.3,0-1.6,0-2.3,0-2.3-2.9.5-9.9.1-9.9.1M161.1,105c-.2,0-.4-.1-.4-.3s.1-.4.3-.4.4.1.4.3-.1.4-.3.4"/>
              <path class="cls-11" d="M150.5,124.5c-2.8-.2-6.4-.9-7.3-1.1-.1,0-.2,0-.2.2,0,.3-.1.9-.3,1.8.5.2,1.3.4,2.1.6,1.3.3,3.2.6,5.6.6,0-.9.2-1.5.2-1.8,0-.1,0-.2-.2-.2M146.6,125.6c-.2,0-.4-.1-.4-.3s.1-.4.3-.4.4.1.4.3-.1.4-.3.4"/>
              <path class="cls-11" d="M166.5,124.3c-3.8.6-7.8.3-8.9.2-.2,0-.4.1-.4.3,0,.4-.1,1-.2,1.9,2.8.3,6.9.6,9.8-.2,0-.8,0-1.4,0-1.8,0-.2-.2-.4-.4-.4M162.2,126.4c-.2,0-.4-.1-.4-.3s.1-.4.3-.4.4.1.4.3-.1.4-.3.4"/>
              <path class="cls-2" d="M161.9,108.5s0,0,0,0l.3,1.7h0s0,0,0,0l-.3-1.8c0,0,0,0,0,.1,0,0,0,0,0,0"/>
              <polygon class="cls-2" points="161.2 110.5 161.2 110.6 161.4 110.6 161.4 110.5 161.2 110.5"/>
              <path class="cls-26" d="M158.2,110.6c-.1,0-.2,0-.3.1,0,0,0,.2,0,.4,0,.2,0,.3,0,.4,0,0,.1.1.3.1.1,0,.2,0,.3-.1,0,0,0-.2,0-.4,0-.2,0-.3,0-.4,0,0-.1-.1-.3-.1M158.5,111.5c0,0-.1.1-.2.1-.1,0-.2,0-.2-.1,0,0,0-.2,0-.4,0-.2,0-.3,0-.4,0,0,.1-.1.2-.1.1,0,.2,0,.2.1,0,0,0,.2,0,.4,0,.2,0,.3,0,.4"/>
              <path class="cls-26" d="M158.2,110.1c-.3,0-.6,0-.7.3-.2.2-.3.4-.2.7,0,.3,0,.6.3.7.2.2.4.3.7.3.3,0,.6,0,.7-.3.2-.2.3-.4.2-.7,0-.3,0-.6-.3-.7-.2-.2-.4-.3-.7-.3M158.9,111.8c-.2.2-.4.2-.7.2-.3,0-.6,0-.7-.2-.2-.2-.2-.4-.2-.7,0-.3,0-.5.2-.7.2-.2.4-.2.7-.2.3,0,.6,0,.7.2.2.2.2.4.2.7,0,.3,0,.5-.2.7"/>
              <path class="cls-26" d="M162.2,110.1h0s0,0,0,0Z"/>
              <path class="cls-26" d="M162.2,110.6h-.2s0,.4,0,.4h.2c0,0,.1,0,.2,0,0,0,0,0,0-.2,0,0,0-.1,0-.2,0,0,0,0-.2,0M162.4,110.9s0,0-.1,0h-.2s0-.4,0-.4h.2c0,0,.1,0,.1,0,0,0,0,0,0,.1,0,0,0,.1,0,.1"/>
              <path class="cls-26" d="M164.6,110.6c0,0,.1,0,.1,0,0,0,0,0,0-.1v-.2c0,0,0-.1,0-.1,0,0,0,0-.1,0h-1c0,0-.1,0-.1,0,0,0,0,0,0,.1v1.6c0,0,0,.1,0,.1,0,0,0,0,.1,0h1c0,0,.1,0,.1,0,0,0,0,0,0-.1v-.2c0,0,0-.1,0-.1,0,0,0,0-.1,0h-.5s0-.2,0-.2h.4c0,0,.1,0,.1,0,0,0,0,0,0-.1v-.2c0,0,0-.1,0-.1,0,0,0,0-.1,0h-.4s0-.2,0-.2h.5ZM164.4,110.9c0,0,0,0,.1,0,0,0,0,0,0,.1v.2c0,0,0,0,0,.1,0,0,0,0-.1,0h-.4s0,.3,0,.3h.5c0,0,0,0,.1,0,0,0,0,0,0,.1v.2c0,0,0,0,0,.1,0,0,0,0-.1,0h-1c0,0,0,0-.1,0,0,0,0,0,0-.1v-1.6s0,0,0-.1c0,0,0,0,.1,0h1c0,0,0,0,.1,0,0,0,0,0,0,.1v.2c0,0,0,0,0,.1,0,0,0,0-.1,0h-.5s0,.3,0,.3h.4Z"/>
              <polygon class="cls-26" points="160.9 110.6 160.9 110.6 161.2 110.5 160.9 110.6"/>
              <polygon class="cls-26" points="161.2 110.5 161.2 110.5 161.4 110.5 161.2 110.5"/>
              <polygon class="cls-26" points="161.4 110.5 161.4 110.5 162.2 110.4 161.4 110.5"/>
              <polygon class="cls-26" points="161.2 110.5 161.2 110.5 161.2 110.5 161.2 110.5"/>
              <path class="cls-26" d="M162.9,110.3c-.1-.1-.3-.2-.6-.2,0,0,0,0,0,0h0s-.3-1.7-.3-1.7c0,0,0,0,0,0,0,0,.1-.2.1-.4,0-.1,0-.3-.1-.3,0,0,0,0,0,0h-2s0,0,0,0c0,0,0,0,0,0,0,0,0,.3,0,.8,0,.3.2.9.2.9,0,0,0,.1.2.1,0,0,.1,0,0-.2v-.5c0,0,.1,0,.1,0v.7c.2,0,.2.1.3.1,0,0,.1,0,0-.2v-.7c-.1,0,0,0,0,0l.2,1c0,0,0,.1.2.1,0,0,.1,0,0-.2l-.2-1h.2c0,0,.2.9.2.9,0,0,0,.1.2.1,0,0,.1,0,0-.2l-.2-1.2s0,0,0,0h.1s0,0,0,0l.2,1.3c0,.1,0,.2-.2.2h0s0,0,0,0h0c0,0-.2,0-.2,0,0,0,0,0,0,0h0c0,.2,0,.3-.2.3h0c-.1,0-.2,0-.2-.1v-.2s0,0,0,0c0,0,0,.2-.2.2h0s0,0-.1,0v.5c0,0,0,0,0,0,0,0-.1,0-.1,0,0,0,0,0,0,.1v.6s-.5-.7-.5-.7c0,0,0,0,0,0,0,0,0,0,0,0h-.3c0,0-.1,0-.1,0,0,0,0,0,0,.1v1.6c0,0,0,.1,0,.1,0,0,0,0,.1,0h.3c0,0,.1,0,.1,0,0,0,0,0,0-.1v-.6s.5.7.5.7c0,0,0,0,0,0,0,0,0,0,0,0h.3c0,0,.1,0,.1,0,0,0,0,0,0-.1v-1.2s0-.1,0-.1h.2s0,0,0,0v1.3c0,0,0,.1,0,.1,0,0,0,0,.1,0h.3c0,0,.1,0,.1,0,0,0,0,0,0-.1v-.4s.2,0,.2,0c.3,0,.5,0,.6-.2.1-.1.2-.3.2-.5,0-.2,0-.4-.2-.5M161.2,110.7v1.2s0,0,0,.1c0,0,0,0-.1,0h-.3s0,0,0,0c0,0,0,0,0,0l-.5-.8v.7s0,0,0,.1c0,0,0,0-.1,0h-.3c0,0,0,0-.1,0,0,0,0,0,0-.1v-1.6s0,0,0-.1c0,0,0,0,.1,0h.3s0,0,0,0c0,0,0,0,0,0l.5.8v-.7s0,0,0-.1c0,0,0,0,.1,0h0s0,.4,0,.4h.1s.3,0,.3,0h0ZM162.9,111.3c-.1.1-.3.2-.6.2h-.2s0,.4,0,.4c0,0,0,0,0,.1,0,0,0,0-.1,0h-.3c0,0,0,0-.1,0,0,0,0,0,0-.1v-1.3s0-.1,0-.1h.8c0-.1,0-.3,0-.3h0s0,0,0,0c.3,0,.4,0,.6.2.1.1.2.3.2.5,0,.2,0,.4-.2.5"/>
              <polygon class="cls-26" points="161.4 110.5 161.4 110.5 161.4 110.5 161.4 110.5"/>
              <path class="cls-21" d="M160.7,109.7h0c0,0,.2-.1.2-.2,0,0,0,0,0,0v.2c0,.1.2.2.3.2h0c.1,0,.2-.1.2-.2h0c0,0,0,0,0,0,0,0,.1.1.2.1h0s0,0,0,0h0c.1,0,.2-.1.2-.2l-.2-1.3s0,0,0,0h-.1s0,0,0,0l.2,1.2c0,0,0,.1,0,.2,0,0-.2,0-.2-.1l-.2-.9h-.2c0,0,.2,1.1.2,1.1,0,0,0,.1,0,.2,0,0-.2,0-.2-.1l-.2-1h-.2c0,0,.1.8.1.8,0,0,0,.1,0,.2,0,0-.2,0-.2-.1v-.7c-.1,0-.3,0-.3,0v.5c.1,0,0,.1,0,.2,0,0-.2,0-.2-.1,0,0-.1-.6-.2-.9,0-.5,0-.8,0-.8,0,0,0,0,0,0,0,0,0,0-.1,0,0,0,0,.5,0,.8,0,.3.2,1,.2,1,0,.1.1.2.2.2h0s0,0,0,0h0c0,0,.2,0,.2-.2,0,0,0,0,0,0v.2c0,0,0,.1.1.1,0,0,0,0,.1,0"/>
              <polygon class="cls-21" points="161.9 107.6 161.9 107.6 161.9 107.6 161.9 107.6"/>
              <path class="cls-21" d="M161.9,107.6c0,0,.1.2.1.3,0,.2-.1.4-.1.4,0,0,0,0,0,0h0s0,0,0,0c0,0,0,0,0,0,0,0,0,0,0-.1,0-.2.1-.4,0-.6,0,0,0-.1-.1-.2,0,0,0,0,0,0h0s0,0,0,0c0,0,0,0,0,0"/>
              <path class="cls-26" d="M153.1,111s0,0,0,0c0,0-.2,0-.2-.2-1.5-5.2-1.9-9.6-2-12.5s.2-5,.2-5c0-.1.1-.2.3-.2.1,0,.2.1.2.3,0,0-.3,1.9-.2,5,0,2.7.5,7,1.8,11.9.7-1.2,2.8-4.9,5.2-9.9,1.6-3.2,3-7.4,3-7.5,0-.1.2-.2.3-.1.1,0,.2.2.1.3,0,0-1.4,4.3-3,7.5-3.1,6.2-5.5,10.3-5.5,10.4,0,0-.1.1-.2.1"/>
              <path class="cls-19" d="M151.2,118.1h3.9c.4.2.8-.2.8-.5v-6.9c0-.4-.2-.7-.7-.7h-3.9c-.4-.2-.8.2-.8.6v6.9c-.1.4.2.7.7.7"/>
              <path class="cls-26" d="M155.2,118.4s0,0,0,0h-3.9c-.5-.2-.9-.5-.9-1v-6.9c.1-.2.2-.4.4-.6.2-.2.4-.2.7-.2h3.9c.5.2.9.5.9,1v6.9c0,.2-.2.4-.3.6-.2.2-.4.2-.6.2M151.2,118h3.9c.2.1.4,0,.5,0,.1-.1.2-.2.2-.4v-6.9c0-.3-.2-.6-.6-.6h-3.9c-.2-.1-.4,0-.5,0-.1.1-.2.2-.2.4v6.9c-.1.3.2.6.5.6"/>
              <path class="cls-11" d="M154.1,127.7c-.3,0-.5-.2-.5-.5s.2-.5.5-.5.5.2.5.5-.2.5-.5.5M154.1,126.8c-.2,0-.4.2-.4.4s.2.4.4.4.4-.2.4-.4-.2-.4-.4-.4"/>
              <path class="cls-11" d="M153.7,108.1c-.3,0-.5-.2-.5-.5s.2-.5.5-.5.5.2.5.5-.2.5-.5.5M153.6,107.2c-.2,0-.4.2-.4.4s.2.4.4.4.4-.2.4-.4-.2-.4-.4-.4"/>
              <path class="cls-11" d="M155.1,98c-.3,0-.5-.2-.5-.5s.2-.5.5-.5.5.2.5.5-.2.5-.5.5M155.1,97.1c-.2,0-.4.2-.4.4s.2.4.4.4.4-.2.4-.4-.2-.4-.4-.4"/>
            </g>
            <path class="cls-23" d="M154.9,87c.1-.7,1.9-.9,2.4-.2,0,0-.3,1.3-1.8.8s-.6-.4-.6-.5Z"/>
            <g>
              <g>
                <path class="cls-18" d="M129.1,154.2c5.9-9.9,20-17.7,31.5-17.5,5.7,0,9.7,2.2,11.6,5.5.3.5,1.9,3.5,2.2,4,1.8,3.3,1.5,7.8-1.4,12.7-5.9,9.9-20,17.7-31.5,17.5-5.7,0-9.7-2.2-11.6-5.4-.3-.5-1.9-3.5-2.2-4-1.8-3.3-1.5-7.8,1.5-12.7Z"/>
                <path class="cls-14" d="M142.7,141.7c5.7-3.2,12.1-5.1,17.8-5,5.7,0,9.7,2.2,11.6,5.5.3.5,1.9,3.5,2.2,4,1.8,3.3,1.5,7.8-1.4,12.7-2.9,4.9-7.9,9.4-13.6,12.5l-16.5-29.7Z"/>
                <path class="cls-14" d="M154.8,137.2c2-.4,3.9-.6,5.8-.5,5.7,0,9.7,2.2,11.6,5.5.3.5,1.9,3.5,2.2,4,1.8,3.3,1.5,7.8-1.4,12.7-1,1.6-2.1,3.1-3.5,4.6l-14.6-26.2Z"/>
                <path class="cls-16" d="M170.7,154.8c-5.9,9.9-20,17.7-31.5,17.5-11.5-.2-16-8.3-10.1-18.2,5.9-9.9,20-17.7,31.5-17.5,11.5.2,16,8.3,10.1,18.2Z"/>
              </g>
              <g>
                <g class="cls-33">
                  <path class="cls-4" d="M124.3,142.5c-1.1,7.6,2.1,14.3,6.5,22.1l37.8-21.1c-4.3-7.8-8.3-14.1-15.4-17.1-7.1-3-11.4-3.1-14.2-4.1-2.8-1-4-2.3-4.6-3.4-.6-1.1-1.1-2.8-.5-5.7.6-2.9,2.9-6.6,4-14.2,1.1-7.6-2.1-14.3-6.5-22.1l-37.8,21.1c4.3,7.8,8.3,14.1,15.4,17.1,7.1,3.1,11.4,3.1,14.2,4.1,2.8,1,3.9,2.3,4.6,3.4.6,1.1,1.1,2.8.5,5.7-.3,1.6-1.2,3.4-2,5.9-.7,2.1-1.5,4.8-2,8.3Z"/>
                </g>
                <path class="cls-17" d="M167.4,154.3c-5,8.4-17,15.1-26.7,14.9-9.8-.1-13.6-7.1-8.6-15.4,5-8.4,17-15.1,26.7-14.9,9.8.1,13.6,7.1,8.6,15.4Z"/>
                <path class="cls-15" d="M130.2,87.7c-5,8.4-17,15.1-26.7,14.9s-13.6-7.1-8.6-15.4c5-8.4,17-15.1,26.7-14.9,9.8.1,13.6,7.1,8.6,15.4Z"/>
                <g class="cls-30">
                  <path class="cls-26" d="M113.2,113.6c2.6,1.2,4.9,1.3,6.7,1.7,1.5.3,2.7.5,3.9,1,3,1.1,5.1,2.7,6.4,5,1.2,2.2,1.8,2.6,2.5,2.2.6-.3.7-1-.6-3.3-1.3-2.2-1.5-4.9-.9-8,.3-1.2.7-2.4,1.2-3.8.9-2.5-.6-2-1.8-.8-3.6,3.7-5.1,3.6-11.2,3-1.6-.2-3.8-.1-4.7,0-1.7.3-3.4,2-1.5,2.9Z"/>
                </g>
                <g class="cls-30">
                  <path class="cls-7" d="M135.6,126.1c-.4-.7-1.2-1-1.9-.7-.6.3-.8,1.2-.4,2,.4.7,1.2,1,1.9.7.6-.3.8-1.2.4-2Z"/>
                </g>
                <path class="cls-7" d="M132.9,162.9c-3.2-6-5.5-11.4-4.5-17.2.7-4.6,4-9.7,9.5-12.8,5.6-3.1,10.3-3.7,15.9-1.4,5.4,2.2,8.8,7,12.2,12.9,1.3,2.3.9,5.5-1.3,9-4.5,7.1-15,12.9-23.4,13-4.2,0-7.1-1.3-8.4-3.6h0Z"/>
                <path class="cls-5" d="M164.7,153.5c-4.5,7.1-15,12.9-23.4,13-8.4.1-11.6-5.6-7.1-12.7,4.5-7.1,15-12.9,23.4-13,8.4-.1,11.6,5.6,7.1,12.7Z"/>
              </g>
              <g>
                <path class="cls-18" d="M88.9,82c5.9-9.9,20-17.7,31.5-17.5,5.7,0,9.7,2.2,11.6,5.5.3.5,1.9,3.5,2.2,4,1.8,3.3,1.5,7.8-1.4,12.7-5.9,9.9-20,17.7-31.5,17.5-5.7,0-9.7-2.2-11.6-5.4-.3-.5-1.9-3.5-2.2-4-1.8-3.3-1.5-7.8,1.5-12.7Z"/>
                <path class="cls-14" d="M102.5,69.5c5.7-3.2,12.1-5.1,17.8-5,5.7,0,9.7,2.2,11.6,5.5.3.5,1.9,3.5,2.2,4,1.8,3.3,1.5,7.8-1.4,12.7-2.9,4.9-7.9,9.4-13.6,12.5l-16.5-29.7Z"/>
                <path class="cls-18" d="M114.6,65c2-.4,3.9-.6,5.8-.5,5.7,0,9.7,2.2,11.6,5.5.3.5,1.9,3.5,2.2,4,1.8,3.3,1.5,7.8-1.4,12.7-1,1.6-2.1,3.1-3.5,4.6l-14.6-26.2Z"/>
              </g>
              <path class="cls-28" d="M114.5,65c2-.4,3.9-.6,5.8-.5,5.8,0,9.8,2.2,11.6,5.5.3.5,1.9,3.5,2.2,4,1.8,3.3,1.5,7.8-1.4,12.7-1,1.6-2.1,3.1-3.5,4.6l-14.6-26.3Z"/>
            </g>
            <g>
              <g>
                <path class="cls-29" d="M115.5,117.9c.1-.1.3-.3.4-.5,0,0,0-.1.1-.2,0-.1.2-.3.3-.4.6-.9.6-1.6.3-1.9-.2-.2-.6-.2-1,.2,0,0,0,0-.1.1-.3.3-.6.7-.9,1-.1.2-.3.3-.4.5,0,.1-.2.2-.3.4-.1.3,0,.7.1.9.2.2.4.3.6.3.3,0,.6-.1.8-.4Z"/>
                <path class="cls-29" d="M116.9,118.9c0,0,.2-.2.2-.3.3-.4.5-.7.7-1.1.3-.6.4-1,.4-1.5,0-.3-.1-.5-.2-.6-.2-.2-.5-.2-.7,0,0,0,0,0-.1,0,0,0-.1.1-.2.2-.2.2-.3.5-.4.7,0,.1-.1.2-.2.3-.1.2-.2.5-.4.7-.1.2-.3.4-.4.6,0,0,0,0-.1.1-.1.1-.2.2-.3.4,0,.2-.2.7,0,.9.4.4,1.1,0,1.6-.4Z"/>
                <path class="cls-29" d="M118.9,116.4c0,0-.1,0-.2.1,0,0,0,0-.1.1-.2.2-.3.5-.5.7,0,.1-.1.2-.2.3-.1.2-.3.4-.4.6-.2.2-.3.4-.4.5,0,0,0,0,0,0,0,0,0,0,0,0,0,0,0,0,0,0,0,0-.1.1-.2.2-.1.2-.3.7,0,.9.5.5,1.3,0,1.7-.4,0,0,0,0,.1-.1.3-.3.6-.7.8-1.1.4-.6.5-1,.5-1.5,0-.3,0-.5-.2-.6-.2-.2-.5-.2-.7-.1Z"/>
                <path class="cls-29" d="M120,118.1s0,0,0,0c-.2.2-.4.4-.5.5,0,0-.1.2-.2.3-.1.2-.3.4-.5.5-.1.1-.3.3-.4.4,0,0,0,0,0,0,0,0,0,0-.1,0,0,0-.1,0-.2.1,0,0,0,0-.1.1-.1.2-.3.6-.2.9.1.2.3.3.5.4.4,0,.9-.1,1.2-.3,0,0,0,0,0,0,.3-.3.6-.5.9-.8.4-.5.6-.9.6-1.3,0-.3,0-.5,0-.6-.1-.2-.3-.4-.6-.3,0,0-.1,0-.2.1Z"/>
              </g>
              <path class="cls-6" d="M116.2,115.9l-.6-.3c0,0,0-.1,0-.2.1-.2.4-.5.8-.3.2.1.2.4,0,.8,0,0-.1,0-.2,0"/>
              <path class="cls-6" d="M117.8,116.4l-.6-.2c0,0-.1,0,0-.2,0-.2.3-.6.7-.5.3,0,.3.3.2.8,0,0,0,0-.1,0"/>
              <path class="cls-6" d="M119.4,117.5l-.6-.2c0,0,0-.1,0-.2,0-.2.3-.6.7-.4.2,0,.3.4.1.8,0,0,0,0-.2,0"/>
              <path class="cls-6" d="M120.5,119.1l-.6-.3c0,0,0-.1,0-.2.1-.2.4-.5.8-.4.2.1.3.4,0,.8,0,0-.1,0-.2,0"/>
            </g>
            <g>
              <path class="cls-29" d="M167.5,134.7c-.2.3-1,.4-2.3,1s-2.9.9-4,1.7c-.1,0-.4.3-.5.6,0,.1,0,.3,0,.4.1.2.5.4.6.4.7-.1,1.4-.6,2.2-.7.1,0,.2,0,.3,0,.6.2.6.7.5,1.2,0,0,0,.1,0,.2-.1.3-.4.7-.6.9-.5.6-1,1.2-1.6,1.7-.3.2-.6.5-1,.6-.4.2-.9.7-.7,1.1.6,1.1,2.5-.3,3.2-.8.6-.4,1.6-1.4,1.9-1.9-.4.9-1,1.7-1.7,2.4-.6.6-1.5.8-2.1,1.4,0,0-.2.2-.2.3,0,0,0,0,0,.2,0,.5.6.6.7.6.8-.2,2-.8,2.7-1.3.7-.5,2.1-2.2,2.3-2.6,0,.6-.5,1.5-1,2.2-.3.5-.6,1-1,1.5,0,0,0,0,0,0,0,.1-.1.4,0,.5.2.2.5.2.7,0,1.8-.9,2.8-3.8,2.8-3.9,0,.5-.2,1-.4,1.5-.1.3-.3.7-.5,1-.2.3-.6.8-.7,1.2-.1.3-.1.5,0,.6.4.3.9-.2,1.2-.4.6-.6,1-1.4,1.3-2.2,1.7-3.6,1.9-6,1.9-6.1,2.6-3.9-2.6-5.9-3.8-3.5Z"/>
              <g>
                <path class="cls-6" d="M161.3,143.5l.3.5c0,0,0,.1,0,.2-.2,0-.6.2-.8-.1-.1-.2,0-.4.4-.6,0,0,.1,0,.1,0"/>
                <path class="cls-6" d="M162.1,145.2l.3.5c0,0,0,.1,0,.2-.2,0-.6.2-.8,0-.1-.2,0-.4.4-.6,0,0,.1,0,.1,0"/>
                <path class="cls-6" d="M165.6,145.7l.4.4s0,.1,0,.2c-.2.1-.5.4-.8,0-.2-.2,0-.4.2-.7,0,0,.1,0,.2,0"/>
                <path class="cls-6" d="M167.2,146.3l.4.3s0,0,0,.1c-.1.1-.4.3-.6.2-.2-.1-.1-.3,0-.6,0,0,0,0,.1,0"/>
                <path class="cls-6" d="M161.6,137.4s.4.4.4.9c0,.2-.7.4-.9.1-.2-.2-.4-.6.5-1"/>
              </g>
            </g>
            <path class="cls-13" d="M167.5,134.7c2.1.6,2.2.8,3.9,2.1.2-.3,1.8-2.4,2.1-2.7,3.2-4.5,8.8-13.3,9.4-14.2,1.4-2.3,1.8-5,1.2-5.8-2-2.5-6.6.2-8.9,3.5-2.7,3.8-7.5,17-7.6,17.3Z"/>
          </g>
          <path class="cls-20" d="M130.5,82.7c-5.9,9.9-20,17.7-31.5,17.5-11.5-.2-16-8.3-10.1-18.2,5.9-9.9,20-17.7,31.5-17.5,11.5.2,16,8.3,10.1,18.2Z"/>
        </g>
      </g>
    </g>
  </g>
</svg>