<svg xmlns="http://www.w3.org/2000/svg" xmlns:xlink="http://www.w3.org/1999/xlink" width="24" height="24" viewBox="0 0 24 24">
  <defs>
    <style>
      .cls-1 {
        fill: none;
      }

      .cls-2 {
        clip-path: url(#clip-iconInformativo);
      }

      .cls-3 {
        clip-path: url(#clip-path);
      }

      .cls-4 {
        fill: #003770;
      }
    </style>
    <clipPath id="clip-path">
      <rect id="Rectángulo_10867" data-name="Rectángulo 10867" class="cls-1" width="20" height="20"/>
    </clipPath>
    <clipPath id="clip-iconInformativo">
      <rect width="24" height="24"/>
    </clipPath>
  </defs>
  <g id="iconInformativo" class="cls-2">
    <g id="Grupo_23095" data-name="Grupo 23095" transform="translate(2 2)">
      <g id="Grupo_23094" data-name="Grupo 23094" class="cls-3">
        <path id="Trazado_16526" data-name="Trazado 16526" class="cls-4" d="M10,5a.99.99,0,1,0,.71.29A.973.973,0,0,0,10,5m1,4H9v6h2ZM10,0a9.678,9.678,0,0,1,3.9.79,9.989,9.989,0,0,1,5.32,5.32A9.758,9.758,0,0,1,20,10a9.678,9.678,0,0,1-.79,3.9,10.007,10.007,0,0,1-2.14,3.18,10.174,10.174,0,0,1-3.18,2.14A9.758,9.758,0,0,1,10,20a9.678,9.678,0,0,1-3.9-.79,10.007,10.007,0,0,1-3.18-2.14A10.174,10.174,0,0,1,.78,13.89,9.623,9.623,0,0,1,0,10,9.678,9.678,0,0,1,.79,6.1,10.174,10.174,0,0,1,2.93,2.92,9.936,9.936,0,0,1,6.1.79,9.849,9.849,0,0,1,10,0"/>
      </g>
    </g>
  </g>
</svg>
